<svg width="34" height="34" viewBox="0 0 34 34" fill="none" xmlns="http://www.w3.org/2000/svg">
<path fill-rule="evenodd" clip-rule="evenodd" d="M5.66669 7.08333C4.89076 7.08333 4.25002 7.72407 4.25002 8.5V25.5C4.25002 26.2759 4.89076 26.9167 5.66669 26.9167H28.3334C29.1093 26.9167 29.75 26.2759 29.75 25.5V8.5C29.75 7.72407 29.1093 7.08333 28.3334 7.08333H5.66669ZM1.41669 8.5C1.41669 6.15926 3.32595 4.25 5.66669 4.25H28.3334C30.6741 4.25 32.5834 6.15926 32.5834 8.5V25.5C32.5834 27.8407 30.6741 29.75 28.3334 29.75H5.66669C3.32595 29.75 1.41669 27.8407 1.41669 25.5V8.5Z" fill="white"/>
<path fill-rule="evenodd" clip-rule="evenodd" d="M1.6729 7.68739C2.12158 7.04642 3.00491 6.89054 3.64588 7.33922L17.0001 16.6872L30.3544 7.33922C30.9954 6.89054 31.8787 7.04642 32.3274 7.68739C32.7761 8.32836 32.6202 9.2117 31.9792 9.66037L17.8125 19.577C17.3248 19.9185 16.6755 19.9185 16.1877 19.577L2.02107 9.66037C1.3801 9.2117 1.22422 8.32836 1.6729 7.68739Z" fill="white"/>
</svg>
