<svg width="18" height="19" viewBox="0 0 18 19" fill="none" xmlns="http://www.w3.org/2000/svg">
<path opacity="0.7" d="M15.959 8.00499C16.97 7.88388 17.6553 7.21672 17.9193 6.31389C17.267 6.77311 16.5122 6.8948 15.7976 6.65593C15.7687 6.45518 15.7359 6.25516 15.6991 6.05586C15.2226 3.51648 13.5904 1.4708 11.8832 1.71792C12.0211 1.63682 12.1606 1.56208 12.3017 1.49371C12.4899 1.39606 13.5933 1.13531 13.4197 0.569607C13.2733 0.0720961 11.925 0.945467 11.6711 1.06057C12.0061 0.877823 12.5604 0.56306 12.6196 0.00390625C12.0874 0.121817 11.5957 0.459883 11.2129 0.971106C11.3589 0.755046 11.4529 0.484631 11.4826 0.195382C10.1131 1.46589 9.31306 4.02654 8.66586 6.51028C8.26589 5.90105 7.80758 5.36595 7.30292 4.91901C5.82038 3.78141 4.27676 2.79437 2.68491 1.96613C2.61963 2.98842 3.03325 4.34785 4.22587 5.25177C3.85128 5.23606 3.47725 5.30126 3.118 5.44488C3.27169 6.61611 3.77413 7.58112 5.13341 8.04754C4.90179 8.03754 4.67134 8.09583 4.45824 8.21834C4.24514 8.34085 4.05455 8.5246 3.89984 8.75671C4.08846 9.31116 4.40793 9.76629 4.8086 10.0514C5.20928 10.3365 5.66873 10.4356 6.11557 10.3333C4.73439 11.1973 5.55231 12.7984 6.6764 12.5595C6.26574 13.1991 5.7606 13.7167 5.19313 14.0794C4.62565 14.4421 4.00827 14.6418 3.38026 14.666C2.75226 14.6902 2.1274 14.5382 1.54544 14.2198C0.963477 13.9014 0.437166 13.4234 0 12.8164C4.53163 21.782 14.3828 18.1189 15.8508 9.48279C16.2521 9.52089 16.6546 9.43452 17.0273 9.23032C17.3999 9.02612 17.7327 8.70956 18 8.30502C17.3124 8.44051 16.6104 8.33742 15.9607 8.00554L15.959 8.00499Z" fill="#7C7A7A"/>
</svg>
